<svg xmlns="http://www.w3.org/2000/svg" viewBox="0 0 500 500" version="1.1"><g id="root" stroke="none" stroke-width="1" fill="none" fill-rule="evenodd"><rect id="background.accent" fill="#f6f6f6" x="0" y="0" width="500" height="500"/><path d="M157.071 202l92.929 92.929l92.929 -92.929l-92.929 -92.929l-92.929 92.929zm92.929 -100l100 100l-100 100l-100 -100l100 -100z" id="shape.primary" fill="#004a55" fill-rule="nonzero"/><path d="M249.858 162.002c-0.132 0.024 -0.263 0.06 -0.383 0.096c-0.096 0.024 -0.192 0.06 -0.287 0.096c-4.753 0.12 -9.301 1.045 -13.503 2.69c-0.515 0.06 -1.017 0.263 -1.436 0.576c-4.214 1.836 -7.996 4.477 -11.3 7.586c-0.79 0.312 -1.413 0.937 -1.724 1.729c-2.98 3.17 -5.446 6.843 -7.278 10.852c-0.012 0.036 -0.084 0.06 -0.096 0.096c-0.035 0.036 -0.06 0.06 -0.095 0.096c-0.575 0.588 -0.886 1.393 -0.862 2.209c0 0.036 0 0.06 0 0.096c-1.46 3.89 -2.322 8.031 -2.49 12.389c-0.539 0.948 -0.539 2.124 0 3.073c0.18 4.537 1.113 8.931 2.681 12.965c0.06 0.6 0.3 1.164 0.67 1.632c1.796 4.058 4.214 7.731 7.183 10.948c0.275 1.08 1.125 1.933 2.202 2.209c3.208 2.977 6.871 5.402 10.917 7.203c0.443 0.36 0.97 0.588 1.532 0.672c4.31 1.693 9.002 2.701 13.886 2.785c0.036 0 0.06 0 0.096 0c0.191 0 0.383 0 0.574 0c0.228 0 0.443 0 0.67 0c0.096 -0.024 0.192 -0.06 0.288 -0.096c4.74 -0.12 9.313 -1.044 13.502 -2.689c0.371 -0.06 0.73 -0.192 1.054 -0.384c0.131 -0.06 0.25 -0.132 0.383 -0.192c0.06 -0.024 0.131 -0.06 0.191 -0.096c4.046 -1.801 7.709 -4.226 10.917 -7.203c1.077 -0.276 1.927 -1.128 2.202 -2.209c2.945 -3.181 5.291 -6.842 7.087 -10.852c0.036 -0.036 0.06 -0.06 0.096 -0.096c0.012 -0.036 0.083 -0.06 0.095 -0.096c0.072 -0.156 0.144 -0.312 0.192 -0.48c0.012 -0.036 0.084 -0.06 0.096 -0.096c0.143 -0.3 0.24 -0.624 0.287 -0.96c1.688 -4.322 2.705 -9.028 2.777 -13.926c0.024 -0.192 0.024 -0.384 0 -0.576c0 -0.132 0 -0.252 0 -0.384c-0.012 -0.192 -0.048 -0.384 -0.096 -0.576c-0.107 -4.37 -0.802 -8.56 -2.202 -12.485c0.383 -1.404 -0.252 -2.88 -1.532 -3.553c-1.844 -3.902 -4.334 -7.479 -7.278 -10.564c-0.3 -0.576 -0.766 -1.044 -1.341 -1.345c-3.316 -3.169 -7.158 -5.702 -11.396 -7.586c-0.036 -0.036 -0.06 -0.06 -0.095 -0.096c-0.036 -0.012 -0.06 -0.084 -0.096 -0.096c-0.407 -0.265 -0.862 -0.433 -1.34 -0.48c-4.298 -1.693 -8.93 -2.702 -13.79 -2.786c-0.036 0 -0.06 0 -0.096 0c-0.276 -0.072 -0.575 -0.108 -0.862 -0.096zm-3.16 6.435c0.131 -0.012 0.251 0.012 0.383 0l0 5.09c-0.024 0.324 0.012 0.648 0.096 0.96c-1.652 0.18 -3.232 0.492 -4.789 0.96c-0.047 -0.3 -0.143 -0.588 -0.287 -0.864l-1.915 -4.802c2.083 -0.636 4.273 -1.116 6.512 -1.344zm6.512 0c2.394 0.216 4.668 0.756 6.894 1.44l-1.915 4.706c-0.144 0.276 -0.24 0.564 -0.287 0.864c-1.556 -0.468 -3.136 -0.78 -4.788 -0.96c0.084 -0.312 0.12 -0.636 0.096 -0.96l0 -5.09zm-18.77 3.745l2.011 4.706c0.108 0.348 0.264 0.672 0.479 0.96c-1.412 0.78 -2.777 1.68 -4.022 2.69c-0.18 -0.289 -0.407 -0.553 -0.67 -0.77l-3.64 -3.648c1.808 -1.513 3.747 -2.834 5.842 -3.938zm31.41 0c2.107 1.104 4.034 2.437 5.842 3.938l-3.64 3.649c-0.263 0.216 -0.49 0.48 -0.67 0.768c-1.245 -1.008 -2.61 -1.909 -4.022 -2.689c0.216 -0.288 0.371 -0.612 0.48 -0.96l2.01 -4.706zm-41.56 8.26l3.638 3.648c0.216 0.265 0.48 0.493 0.766 0.673c-1.017 1.272 -1.89 2.593 -2.68 4.033c-0.288 -0.216 -0.611 -0.372 -0.958 -0.48l-4.789 -2.017c1.102 -2.1 2.514 -4.045 4.022 -5.858zm51.71 0c1.497 1.788 2.826 3.78 3.927 5.857l-4.692 2.017c-0.347 0.108 -0.67 0.264 -0.958 0.48c-0.79 -1.44 -1.664 -2.76 -2.681 -4.033c0.287 -0.18 0.55 -0.408 0.766 -0.673l3.639 -3.649zm-25.855 0.095c11.887 0 21.45 9.592 21.45 21.512c0 11.92 -9.563 21.512 -21.45 21.512c-11.886 0 -21.45 -9.591 -21.45 -21.512c0 -11.92 9.564 -21.512 21.45 -21.512zm-6.99 10.084l-4.406 4.418l6.991 7.01l-6.99 7.01l4.405 4.418l6.99 -7.01l6.99 7.01l4.406 -4.417l-6.99 -7.01l6.99 -7.011l-4.405 -4.418l-6.99 7.01l-6.991 -7.01zm-25.186 1.44l4.788 1.921c0.276 0.144 0.563 0.24 0.862 0.288c-0.455 1.56 -0.682 3.23 -0.862 4.898c-0.335 -0.12 -0.694 -0.192 -1.053 -0.192l-5.075 0c0.215 -2.389 0.658 -4.694 1.34 -6.915zm64.352 0c0.682 2.221 1.125 4.514 1.34 6.915l-5.075 0c-0.095 0 -0.191 0 -0.287 0c-0.096 0 -0.191 0 -0.287 0c-0.168 0.024 -0.323 0.048 -0.479 0.096c-0.18 -1.633 -0.407 -3.265 -0.862 -4.802c0.3 -0.048 0.587 -0.144 0.862 -0.288l4.788 -1.92zm-60.043 12.965c0.132 0.012 0.252 0.012 0.384 0c0.18 1.633 0.61 3.265 1.053 4.802c-0.06 0 -0.132 0 -0.192 0c-0.263 0.06 -0.526 0.156 -0.766 0.288l-4.788 1.92c-0.682 -2.208 -1.125 -4.537 -1.34 -6.914l5.075 0c0.191 -0.012 0.383 -0.048 0.574 -0.096zm55.35 0c0.312 0.084 0.635 0.12 0.958 0.096l5.076 0c-0.216 2.377 -0.659 4.706 -1.34 6.915l-4.789 -1.92c-0.3 -0.145 -0.622 -0.24 -0.958 -0.289c0.443 -1.537 0.874 -3.17 1.054 -4.802zm-51.71 10.18c0.801 1.489 1.723 2.917 2.776 4.226c-0.287 0.156 -0.538 0.348 -0.766 0.576l-3.734 3.745c-1.52 -1.824 -2.813 -3.841 -3.927 -5.954l4.789 -2.017c0.323 -0.144 0.61 -0.336 0.861 -0.576zm48.455 0.096c0.263 0.204 0.55 0.372 0.862 0.48l4.788 2.017c-1.113 2.113 -2.406 4.13 -3.926 5.954l-3.735 -3.745c-0.228 -0.228 -0.479 -0.42 -0.766 -0.576c1.041 -1.285 1.975 -2.665 2.777 -4.13zm-6.895 8.163c0.144 0.324 0.335 0.612 0.575 0.864l3.734 3.746c-1.82 1.524 -3.83 2.82 -5.937 3.937l-2.01 -4.801c-0.145 -0.325 -0.336 -0.613 -0.575 -0.865c1.496 -0.816 2.896 -1.812 4.213 -2.88zm-34.666 0.096c1.281 1.045 2.658 1.98 4.118 2.785c-0.203 0.264 -0.371 0.552 -0.479 0.865l-2.01 4.801c-2.108 -1.116 -4.119 -2.413 -5.938 -3.937l3.735 -3.746c0.227 -0.228 0.419 -0.48 0.574 -0.768zm9.48 4.994c1.557 0.456 3.233 0.876 4.885 1.056c-0.084 0.313 -0.12 0.637 -0.096 0.96l0 5.09c-2.37 -0.215 -4.693 -0.66 -6.895 -1.344l1.915 -4.802c0.12 -0.312 0.18 -0.636 0.192 -0.96zm15.706 0c0.012 0.324 0.071 0.648 0.191 0.96l1.915 4.802c-2.202 0.684 -4.524 1.129 -6.894 1.345l0 -5.09c0.023 -0.324 -0.012 -0.648 -0.096 -0.96c1.652 -0.18 3.327 -0.6 4.884 -1.057z" id="shape.primary" fill="#004a55" fill-rule="nonzero"/><g id="Group" transform="translate(40.000000, 328.000000)"><rect id="Rectangle-5" x="0" y="0" width="420" height="52"/><text id="headerText.primary" font-family="Share Tech Mono" font-size="50" font-weight="400" line-spacing="48" letter-spacing="5" fill="#004a55" data-text-alignment="C" font-style="normal"><tspan x="84.515625" y="39.5">megaronk</tspan></text></g><g id="Group-2" transform="translate(40.000000, 394.000000)"><rect id="Rectangle-5-Copy" x="0" y="0" width="420" height="36"/><text id="captionText.primary" font-family="Share Tech Mono" font-size="18.838480586833622" font-weight="400" letter-spacing="1.8838480586833621" fill="#004a55" data-text-alignment="C" font-style="normal"><tspan x="0.0234375" y="23.5">Dependencies optimization made easy</tspan></text></g></g></svg>
